<svg xmlns="http://www.w3.org/2000/svg" viewBox="0 0 1280 320" width="100%" height="320">
  <defs>
    <linearGradient id="bg" x1="0%" y1="0%" x2="100%" y2="100%">
      <stop offset="0%" stop-color="#0a0a0a"/>
      <stop offset="50%" stop-color="#0d1117"/>
      <stop offset="100%" stop-color="#161b22"/>
    </linearGradient>
    <linearGradient id="accent" x1="0%" y1="0%" x2="100%" y2="0%">
      <stop offset="0%" stop-color="#58a6ff" stop-opacity="0.8"/>
      <stop offset="50%" stop-color="#a371f7" stop-opacity="0.6"/>
      <stop offset="100%" stop-color="#f778ba" stop-opacity="0.4"/>
    </linearGradient>
    <radialGradient id="g1" cx="20%" cy="30%" r="40%">
      <stop offset="0%" stop-color="#58a6ff" stop-opacity="0.15"/>
      <stop offset="100%" stop-color="#58a6ff" stop-opacity="0"/>
    </radialGradient>
    <radialGradient id="g2" cx="80%" cy="70%" r="35%">
      <stop offset="0%" stop-color="#a371f7" stop-opacity="0.12"/>
      <stop offset="100%" stop-color="#a371f7" stop-opacity="0"/>
    </radialGradient>
    <radialGradient id="g3" cx="50%" cy="50%" r="50%">
      <stop offset="0%" stop-color="#f778ba" stop-opacity="0.08"/>
      <stop offset="100%" stop-color="#f778ba" stop-opacity="0"/>
    </radialGradient>
    <linearGradient id="line" x1="0%" y1="0%" x2="100%" y2="0%">
      <stop offset="0%" stop-color="#58a6ff" stop-opacity="0"/>
      <stop offset="50%" stop-color="#58a6ff" stop-opacity="0.6"/>
      <stop offset="100%" stop-color="#a371f7" stop-opacity="0"/>
    </linearGradient>
    <filter id="glow">
      <feGaussianBlur stdDeviation="2" result="b"/>
      <feMerge><feMergeNode in="b"/><feMergeNode in="SourceGraphic"/></feMerge>
    </filter>
    <filter id="sg">
      <feGaussianBlur stdDeviation="4" result="b"/>
      <feMerge><feMergeNode in="b"/><feMergeNode in="SourceGraphic"/></feMerge>
    </filter>
  </defs>
  <rect width="100%" height="100%" fill="url(#bg)"/>
  <rect width="100%" height="100%" fill="url(#g1)"/>
  <rect width="100%" height="100%" fill="url(#g2)"/>
  <rect width="100%" height="100%" fill="url(#g3)"/>
  <g opacity="0.03" stroke="#fff" stroke-width="0.5">
    <line x1="0" y1="0" x2="0" y2="320"/><line x1="80" y1="0" x2="80" y2="320"/>
    <line x1="160" y1="0" x2="160" y2="320"/><line x1="240" y1="0" x2="240" y2="320"/>
    <line x1="320" y1="0" x2="320" y2="320"/><line x1="400" y1="0" x2="400" y2="320"/>
    <line x1="480" y1="0" x2="480" y2="320"/><line x1="560" y1="0" x2="560" y2="320"/>
    <line x1="640" y1="0" x2="640" y2="320"/><line x1="720" y1="0" x2="720" y2="320"/>
    <line x1="800" y1="0" x2="800" y2="320"/><line x1="880" y1="0" x2="880" y2="320"/>
    <line x1="960" y1="0" x2="960" y2="320"/><line x1="1040" y1="0" x2="1040" y2="320"/>
    <line x1="1120" y1="0" x2="1120" y2="320"/><line x1="1200" y1="0" x2="1200" y2="320"/>
    <line x1="0" y1="80" x2="1280" y2="80"/><line x1="0" y1="160" x2="1280" y2="160"/>
    <line x1="0" y1="240" x2="1280" y2="240"/>
  </g>
  <line x1="0" y1="160" x2="1280" y2="160" stroke="url(#line)" stroke-width="0.5" opacity="0.3"/>
  <line x1="640" y1="0" x2="640" y2="320" stroke="url(#line)" stroke-width="0.5" opacity="0.2"/>
  <line x1="100" y1="0" x2="400" y2="320" stroke="#58a6ff" stroke-width="0.3" opacity="0.1"/>
  <line x1="880" y1="0" x2="1180" y2="320" stroke="#a371f7" stroke-width="0.3" opacity="0.1"/>
  <g filter="url(#glow)">
    <circle cx="150" cy="80" r="2" fill="#58a6ff" opacity="0.8"/>
    <circle cx="350" cy="120" r="1.5" fill="#a371f7" opacity="0.7"/>
    <circle cx="550" cy="60" r="2.5" fill="#f778ba" opacity="0.6"/>
    <circle cx="750" cy="100" r="1.8" fill="#58a6ff" opacity="0.75"/>
    <circle cx="950" cy="140" r="2" fill="#a371f7" opacity="0.7"/>
    <circle cx="1150" cy="80" r="1.5" fill="#f778ba" opacity="0.65"/>
    <circle cx="200" cy="200" r="1.2" fill="#58a6ff" opacity="0.5"/>
    <circle cx="400" cy="240" r="1" fill="#a371f7" opacity="0.45"/>
    <circle cx="600" cy="180" r="1.5" fill="#f778ba" opacity="0.55"/>
    <circle cx="800" cy="220" r="1.2" fill="#58a6ff" opacity="0.5"/>
    <circle cx="1000" cy="260" r="1" fill="#a371f7" opacity="0.45"/>
    <circle cx="1200" cy="200" r="1.3" fill="#f778ba" opacity="0.5"/>
    <circle cx="100" cy="150" r="0.8" fill="#fff" opacity="0.4"/>
    <circle cx="300" cy="50" r="0.6" fill="#fff" opacity="0.35"/>
    <circle cx="500" cy="250" r="0.7" fill="#fff" opacity="0.4"/>
    <circle cx="700" cy="150" r="0.5" fill="#fff" opacity="0.3"/>
    <circle cx="900" cy="50" r="0.8" fill="#fff" opacity="0.35"/>
    <circle cx="1100" cy="250" r="0.6" fill="#fff" opacity="0.4"/>
  </g>
  <circle cx="200" cy="100" r="60" fill="#58a6ff" opacity="0.03" filter="url(#sg)"/>
  <circle cx="1080" cy="220" r="50" fill="#a371f7" opacity="0.03" filter="url(#sg)"/>
  <g transform="translate(640,130)" text-anchor="middle">
    <text y="-20" font-family="'Segoe UI',system-ui,-apple-system,sans-serif" font-size="48" font-weight="700" fill="#ffffff" letter-spacing="-1">Andrys Domínguez</text>
    <text y="25" font-family="'Segoe UI',system-ui,-apple-system,sans-serif" font-size="18" fill="#8b949e" letter-spacing="3">FULL STACK DEVELOPER</text>
    <line x1="-200" y1="50" x2="200" y2="50" stroke="url(#accent)" stroke-width="1" opacity="0.6"/>
    <g transform="translate(0,85)" font-family="'Segoe UI',system-ui,-apple-system,sans-serif" font-size="13" fill="#58a6ff">
      <rect x="-240" y="-12" width="80" height="24" rx="12" fill="#58a6ff" fill-opacity="0.1" stroke="#58a6ff" stroke-opacity="0.3" stroke-width="0.5"/>
      <text x="-200" y="4" text-anchor="middle" fill="#58a6ff">React</text>
      <rect x="-145" y="-12" width="110" height="24" rx="12" fill="#a371f7" fill-opacity="0.1" stroke="#a371f7" stroke-opacity="0.3" stroke-width="0.5"/>
      <text x="-90" y="4" text-anchor="middle" fill="#a371f7">React Native</text>
      <rect x="-20" y="-12" width="95" height="24" rx="12" fill="#3178c6" fill-opacity="0.1" stroke="#3178c6" stroke-opacity="0.3" stroke-width="0.5"/>
      <text x="27" y="4" text-anchor="middle" fill="#3178c6">TypeScript</text>
      <rect x="90" y="-12" width="75" height="24" rx="12" fill="#3776ab" fill-opacity="0.1" stroke="#3776ab" stroke-opacity="0.3" stroke-width="0.5"/>
      <text x="127" y="4" text-anchor="middle" fill="#3776ab">Python</text>
      <rect x="180" y="-12" width="45" height="24" rx="12" fill="#f778ba" fill-opacity="0.1" stroke="#f778ba" stroke-opacity="0.3" stroke-width="0.5"/>
      <text x="202" y="4" text-anchor="middle" fill="#f778ba">AI</text>
    </g>
  </g>
</svg>
